HIERARCHY
ROOT Hips
{
	OFFSET -0.001795 -0.223333 0.028219
	CHANNELS 6 Xposition Yposition Zposition Zrotation Yrotation Xrotation 
	JOINT LeftUpLeg
	{
		OFFSET 0.069520 -0.091406 -0.006815
		CHANNELS 3 Zrotation Yrotation Xrotation
		JOINT LeftLeg
		{
			OFFSET 0.034277 -0.375199 -0.004496
			CHANNELS 3 Zrotation Yrotation Xrotation
			JOINT LeftFoot
			{
				OFFSET -0.013596 -0.397961 -0.043693
				CHANNELS 3 Zrotation Yrotation Xrotation
				JOINT LeftToe
				{
					OFFSET 0.026358 -0.055791 0.119288
					CHANNELS 3 Zrotation Yrotation Xrotation
					End Site
					{
						OFFSET 0.000000 0.000000 0.000000
					}
				}
			}
		}
	}
	JOINT RightUpLeg
	{
		OFFSET -0.067670 -0.090522 -0.004320
		CHANNELS 3 Zrotation Yrotation Xrotation
		JOINT RightLeg
		{
			OFFSET -0.038290 -0.382569 -0.008850
			CHANNELS 3 Zrotation Yrotation Xrotation
			JOINT RightFoot
			{
				OFFSET 0.015774 -0.398415 -0.042312
				CHANNELS 3 Zrotation Yrotation Xrotation
				JOINT RightToe
				{
					OFFSET -0.025372 -0.048144 0.123348
					CHANNELS 3 Zrotation Yrotation Xrotation
					End Site
					{
						OFFSET 0.000000 0.000000 0.000000
					}
				}
			}
		}
	}
	JOINT Spine
	{
		OFFSET -0.002533 0.108963 -0.026696
		CHANNELS 3 Zrotation Yrotation Xrotation
		JOINT Spine1
		{
			OFFSET 0.005487 0.135180 0.001092
			CHANNELS 3 Zrotation Yrotation Xrotation
			JOINT Spine2
			{
				OFFSET 0.001457 0.052922 0.025425
				CHANNELS 3 Zrotation Yrotation Xrotation
				JOINT Neck
				{
					OFFSET -0.002778 0.213870 -0.042857
					CHANNELS 3 Zrotation Yrotation Xrotation
					JOINT Head
					{
						OFFSET 0.005152 0.064970 0.051349
						CHANNELS 3 Zrotation Yrotation Xrotation
						End Site
						{
							OFFSET 0.000000 0.000000 0.000000
						}
					}
				}
				JOINT LeftShoulder
				{
					OFFSET 0.078845 0.121749 -0.034090
					CHANNELS 3 Zrotation Yrotation Xrotation
					JOINT LeftArm
					{
						OFFSET 0.090977 0.030469 -0.008868
						CHANNELS 3 Zrotation Yrotation Xrotation
						JOINT LeftForeArm
						{
							OFFSET 0.259612 -0.012772 -0.027456
							CHANNELS 3 Zrotation Yrotation Xrotation
							JOINT LeftHand
							{
								OFFSET 0.249234 0.008986 -0.001171
								CHANNELS 3 Zrotation Yrotation Xrotation
								End Site
								{
									OFFSET 0.000000 0.000000 0.000000
								}
							}
						}
					}
				}
				JOINT RightShoulder
				{
					OFFSET -0.081759 0.118833 -0.038615
					CHANNELS 3 Zrotation Yrotation Xrotation
					JOINT RightArm
					{
						OFFSET -0.096012 0.032551 -0.009143
						CHANNELS 3 Zrotation Yrotation Xrotation
						JOINT RightForeArm
						{
							OFFSET -0.253742 -0.013329 -0.021401
							CHANNELS 3 Zrotation Yrotation Xrotation
							JOINT RightHand
							{
								OFFSET -0.255298 0.007772 -0.005559
								CHANNELS 3 Zrotation Yrotation Xrotation
								End Site
								{
									OFFSET 0.000000 0.000000 0.000000
								}
							}
						}
					}
				}
			}
		}
	}
}
MOTION
Frames: 16
Frame Time: 0.050000
-0.158228 0.929245 0.709517 -0.283806 -10.042040 1.869179 7.177599 0.154054 2.505968 -6.949844 1.129127 4.869497 4.584460 9.994937 0.769384 0.000000 0.000000 0.000000 3.738672 0.819903 -7.391058 -1.190403 0.433996 5.626871 -1.945159 -5.681758 1.613752 0.000000 0.000000 0.000000 7.551431 -0.704600 6.204186 8.165585 -4.251021 6.285606 -8.718312 -8.354603 3.021418 1.983497 -0.954722 -18.459425 0.000000 0.000000 0.000000 -17.685749 -24.914039 14.823290 -27.341301 -43.914599 5.611755 48.543609 -13.947164 -4.138282 0.000000 0.000000 0.000000 21.977994 6.097898 -2.294243 55.390577 -5.819475 -6.997971 -2.864591 29.603920 -0.627920 0.000000 0.000000 0.000000 
-0.157041 0.928855 0.708654 -0.158074 -9.699122 1.981638 6.881620 0.144440 2.457765 -6.702146 1.059427 4.494159 4.492199 9.771646 0.565263 0.000000 0.000000 0.000000 3.584819 0.894345 -7.949699 -1.256701 0.485996 6.286945 -2.156315 -6.096533 1.452041 0.000000 0.000000 0.000000 7.503289 -0.713076 6.259172 8.196097 -4.298229 6.562173 -8.444435 -8.407672 2.859899 2.163288 -1.061557 -18.088255 0.000000 0.000000 0.000000 -18.172677 -25.196456 15.112065 -26.665523 -43.343105 5.240611 48.946721 -14.397455 -4.396931 0.000000 0.000000 0.000000 22.130334 7.340039 -1.611371 55.049768 -4.877706 -6.467060 -3.447059 30.216718 -0.782542 0.000000 0.000000 0.000000 
-0.156061 0.929006 0.707707 0.063336 -9.312671 2.107797 6.597656 0.131765 2.343018 -6.611458 1.020775 4.142237 4.340125 9.449436 0.606749 0.000000 0.000000 0.000000 3.276554 0.931938 -8.291207 -1.217595 0.492347 6.486798 -2.309744 -6.486130 1.510855 0.000000 0.000000 0.000000 7.488871 -0.704898 6.116132 8.203339 -4.330149 6.769907 -8.564079 -8.332686 2.777246 2.057347 -0.973079 -18.011620 0.000000 0.000000 0.000000 -18.705052 -25.528873 15.391813 -26.779495 -42.742484 5.109110 49.878147 -15.641685 -5.048983 0.000000 0.000000 0.000000 22.199892 8.450984 -0.918202 55.095830 -3.301289 -5.737766 -3.924714 31.164206 -0.926791 0.000000 0.000000 0.000000 
-0.155311 0.929359 0.706738 0.319594 -9.246909 2.242871 6.118893 0.109277 1.860185 -6.324935 0.981351 4.488480 4.352734 9.486055 0.707738 0.000000 0.000000 0.000000 3.172356 0.991364 -8.759172 -1.607099 0.575822 6.864552 -2.351850 -6.623530 1.582085 0.000000 0.000000 0.000000 7.452439 -0.698386 6.027083 7.907356 -4.165130 6.666982 -8.497465 -7.992070 2.752710 2.346118 -1.125122 -17.634998 0.000000 0.000000 0.000000 -18.941132 -25.602082 15.408836 -28.186349 -41.719517 5.264134 50.573860 -17.519576 -5.938412 0.000000 0.000000 0.000000 21.789638 9.831078 0.024462 55.696423 -1.844737 -5.197630 -4.199584 32.346505 -1.026823 0.000000 0.000000 0.000000 
-0.154794 0.930130 0.705326 0.789582 -9.153587 2.191430 5.446469 0.097460 1.572665 -6.052872 0.938968 4.716761 4.305210 9.428180 1.033376 0.000000 0.000000 0.000000 2.786945 0.985822 -8.827052 -1.877160 0.609439 6.769755 -2.351214 -6.709270 1.765869 0.000000 0.000000 0.000000 7.404657 -0.706578 6.147433 7.598094 -3.986577 6.390506 -8.627084 -7.192051 2.899653 2.626834 -1.217719 -17.543769 0.000000 0.000000 0.000000 -19.769204 -25.398690 15.296282 -29.490889 -40.242465 5.216421 51.525745 -20.766034 -7.554331 0.000000 0.000000 0.000000 22.142416 10.686418 0.733972 55.415139 -0.208496 -4.447222 -4.563827 33.190167 -1.084264 0.000000 0.000000 0.000000 
-0.154259 0.930841 0.702817 1.131536 -8.892260 2.244480 4.993902 0.071914 1.154557 -5.858141 0.903292 4.856974 4.196994 9.235306 1.293539 0.000000 0.000000 0.000000 2.477649 1.087876 -9.685426 -1.994252 0.705805 7.834933 -2.470202 -7.087285 1.972197 0.000000 0.000000 0.000000 7.507644 -0.742755 6.425753 7.266256 -3.811406 6.247242 -8.825807 -6.136088 2.888665 3.245703 -1.474028 -17.272705 0.000000 0.000000 0.000000 -19.804013 -25.299230 14.858243 -31.583471 -38.724331 5.422867 52.258640 -24.589525 -9.513088 0.000000 0.000000 0.000000 22.051386 11.577688 1.674264 55.626364 1.463631 -3.814876 -4.847388 34.004458 -1.071672 0.000000 0.000000 0.000000 
-0.153539 0.931034 0.698775 1.385848 -8.658074 2.294880 4.723713 0.017419 0.250278 -5.819587 0.919893 5.728931 4.149456 9.130855 1.310506 0.000000 0.000000 0.000000 2.352803 1.163654 -10.300894 -2.279682 0.788095 8.309682 -2.558558 -7.381242 2.164101 0.000000 0.000000 0.000000 7.483302 -0.784721 6.847917 6.914683 -3.618535 5.994722 -8.626307 -4.826065 2.898423 3.663214 -1.583071 -17.302202 0.000000 0.000000 0.000000 -20.152289 -25.313129 14.534940 -33.067301 -37.467418 5.495461 51.836946 -28.422193 -11.311798 0.000000 0.000000 0.000000 22.280163 12.167227 2.467587 55.300940 3.229932 -3.082494 -5.481126 34.313846 -1.120755 0.000000 0.000000 0.000000 
-0.152532 0.931229 0.693530 1.413373 -8.205343 2.130627 4.476004 -0.028987 -0.496177 -5.349175 0.848772 6.635051 4.058851 8.911974 1.161824 0.000000 0.000000 0.000000 2.332219 1.255265 -10.980320 -2.302491 0.866490 9.274849 -2.722390 -7.897984 2.493965 0.000000 0.000000 0.000000 7.735829 -0.870396 7.568670 6.344750 -3.305907 5.450079 -8.441955 -3.566680 3.141947 4.617818 -1.989163 -17.508846 0.000000 0.000000 0.000000 -19.692034 -24.872232 13.714569 -35.278534 -36.379987 5.785663 50.521293 -32.538543 -12.942323 0.000000 0.000000 0.000000 21.933396 11.893538 2.824357 55.380268 4.353477 -2.749669 -5.331277 34.587638 -0.936620 0.000000 0.000000 0.000000 
-0.151100 0.930703 0.687634 1.464521 -8.062318 1.794872 4.324208 -0.072271 -1.273840 -5.213932 0.857734 7.922623 4.091976 8.924293 0.852216 0.000000 0.000000 0.000000 2.271913 1.307570 -11.380191 -2.347225 0.927911 9.944223 -2.796502 -8.103507 2.584040 0.000000 0.000000 0.000000 7.836602 -0.924615 8.135689 5.649245 -2.938370 5.180360 -8.011430 -1.960503 3.467208 5.071204 -2.086820 -17.756007 0.000000 0.000000 0.000000 -19.707513 -24.911526 13.253532 -36.462480 -34.874243 5.650285 49.823485 -36.188231 -14.578667 0.000000 0.000000 0.000000 21.542590 11.549093 3.179727 55.296095 5.446990 -2.436490 -4.948480 34.629858 -0.655483 0.000000 0.000000 0.000000 
-0.149262 0.930129 0.681621 1.350165 -7.664076 1.557835 3.711264 -0.119010 -1.879679 -3.978963 0.613461 8.717138 4.120067 8.895780 0.365386 0.000000 0.000000 0.000000 2.327178 1.392408 -11.967667 -2.325607 0.992158 10.816729 -2.961846 -8.561854 2.801537 0.000000 0.000000 0.000000 8.221264 -0.960180 8.236373 5.165123 -2.695262 5.060458 -8.066797 -0.458305 3.660557 6.076827 -2.468909 -18.063879 0.000000 0.000000 0.000000 -19.149873 -24.896836 12.591861 -38.635193 -33.385338 5.738820 47.237111 -38.682276 -14.990717 0.000000 0.000000 0.000000 21.336336 10.836157 3.334582 55.668731 6.144575 -2.299398 -5.038774 34.239082 -0.503100 0.000000 0.000000 0.000000 
-0.146709 0.929493 0.675149 1.242372 -7.252012 0.981270 3.264107 -0.105610 -1.590378 -3.108036 0.422015 8.531068 4.056468 8.669749 -0.128194 0.000000 0.000000 0.000000 2.389482 1.396766 -11.935329 -2.413735 1.035428 11.180041 -3.102062 -8.943563 3.010308 0.000000 0.000000 0.000000 8.445451 -0.962594 8.228233 4.482317 -2.343704 4.764489 -7.539609 0.084396 4.188830 6.386276 -2.587260 -18.244607 0.000000 0.000000 0.000000 -19.366505 -24.328974 12.135702 -40.042231 -31.337252 5.305673 43.567614 -40.286792 -14.307508 0.000000 0.000000 0.000000 20.782072 9.749904 2.922797 55.908149 5.801413 -2.582521 -3.967455 33.876311 -0.126716 0.000000 0.000000 0.000000 
-0.143220 0.928717 0.667254 1.113863 -7.047847 0.142567 2.297453 -0.079644 -1.099283 -1.446183 0.081752 8.382017 4.130583 8.732612 -0.662477 0.000000 0.000000 0.000000 2.439936 1.455780 -12.294585 -2.498317 1.166701 12.554637 -3.193401 -9.244282 3.295027 0.000000 0.000000 0.000000 8.389012 -0.947996 8.351475 4.114864 -2.155669 4.510099 -7.422426 0.841684 4.842797 7.203403 -2.952526 -18.628664 0.000000 0.000000 0.000000 -19.103860 -24.015991 11.665530 -41.798591 -28.745996 4.698025 39.104994 -41.344358 -13.049483 0.000000 0.000000 0.000000 20.434420 8.913445 2.714680 56.346116 4.977904 -3.123152 -3.851950 34.484463 -0.009230 0.000000 0.000000 0.000000 
-0.138374 0.927122 0.656809 0.823697 -7.120950 -0.396396 1.573549 -0.060364 -0.790063 -0.076276 -0.179655 7.767804 4.314323 9.013490 -1.373989 0.000000 0.000000 0.000000 2.332514 1.572113 -13.177026 -2.120866 1.203577 13.929574 -3.177774 -9.332221 3.621212 0.000000 0.000000 0.000000 8.052615 -0.934952 8.627063 3.689002 -1.911877 3.812611 -6.981326 1.293560 5.338739 7.873168 -3.240380 -19.241429 0.000000 0.000000 0.000000 -18.550505 -23.346144 11.112256 -43.974799 -26.677744 4.244279 33.750258 -41.017794 -10.862139 0.000000 0.000000 0.000000 20.492808 8.133335 2.370142 56.794635 4.384858 -3.503724 -4.020436 33.698330 -0.017546 0.000000 0.000000 0.000000 
-0.132554 0.925400 0.643194 0.794146 -7.797103 -1.358659 0.739740 -0.021113 -0.299875 0.820536 -0.334944 7.319088 4.657956 9.732167 -1.849423 0.000000 0.000000 0.000000 2.119395 1.781359 -14.761651 -2.001160 1.447114 16.824976 -2.934429 -9.054883 4.245454 0.000000 0.000000 0.000000 7.585242 -0.975068 9.777317 3.329432 -1.703738 3.160741 -6.920105 1.307781 5.965707 8.699347 -3.603890 -20.406273 0.000000 0.000000 0.000000 -17.576552 -22.672792 10.687024 -45.831829 -24.747522 3.666132 29.087353 -39.041109 -8.519787 0.000000 0.000000 0.000000 20.005399 7.868238 2.131444 57.534953 3.806250 -3.887551 -5.165620 34.489540 -0.373016 0.000000 0.000000 0.000000 
-0.125732 0.923639 0.625919 0.910810 -8.530548 -1.584558 0.263363 -0.064673 -0.730989 0.772146 -0.300088 6.540652 4.956856 10.409041 -2.055807 0.000000 0.000000 0.000000 1.693154 2.073831 -17.116184 -1.871395 1.650819 19.089249 -2.557513 -8.708535 5.353418 0.000000 0.000000 0.000000 6.792082 -0.985553 10.836853 2.803771 -1.422142 2.930659 -6.440375 1.233576 5.540722 8.535384 -3.439909 -21.116442 0.000000 0.000000 0.000000 -17.578898 -21.326793 10.077909 -47.015500 -22.668280 2.968848 24.731480 -37.468928 -6.603002 0.000000 0.000000 0.000000 19.474703 7.434316 1.750950 57.809381 3.105417 -4.188840 -4.877701 34.172578 -0.346240 0.000000 0.000000 0.000000 
-0.119223 0.922203 0.605824 1.181943 -9.211862 -2.075072 -0.329365 -0.123425 -1.246541 0.778830 -0.282756 5.991114 5.207484 11.022672 -1.866183 0.000000 0.000000 0.000000 1.040980 2.214007 -18.596583 -1.566482 1.675767 19.905471 -2.068735 -8.212851 6.602273 0.000000 0.000000 0.000000 5.502963 -0.967045 12.532534 3.040387 -1.507491 1.735622 -6.615025 1.641237 6.133558 9.295864 -3.719324 -22.159247 0.000000 0.000000 0.000000 -16.518839 -20.505853 9.475440 -48.297385 -20.879862 2.309852 20.802304 -35.365318 -4.944973 0.000000 0.000000 0.000000 19.723497 7.352777 1.719112 58.423312 3.524675 -4.108054 -6.216514 33.775314 -0.698721 0.000000 0.000000 0.000000 
